<svg width="429.00000000000006" height="88.24633965715294" viewBox="0 0 369.91304347826093 76.09200950674544" class="looka-1j8o68f"><defs id="SvgjsDefs1228"></defs><g id="SvgjsG1229" featurekey="PG4fjM-0" transform="matrix(0.0507280063378303,0,0,0.0507280063378303,-0.4108968706876241,-0.3855328433297106)" fill="#f8f8ff"><path xmlns="http://www.w3.org/2000/svg" d="M1423.2,552.6L963.1,92.5C908.3,37.7,835.5,7.6,758.1,7.6c-77.4,0-150.2,30.1-204.9,84.9L93,552.6  C38.3,607.4,8.1,680.2,8.1,757.6C8.1,835,38.3,907.7,93,962.5l460.1,460.2c54.7,54.7,127.5,84.9,204.9,84.9  c77.4,0,150.2-30.2,204.9-84.9l460.2-460.2c54.7-54.7,84.9-127.5,84.9-204.9C1508.1,680.2,1477.9,607.3,1423.2,552.6z M1381.1,920.4  L921,1380.6c-43.5,43.5-101.4,67.5-162.8,67.5c-61.5,0-119.3-24-162.8-67.5l-354.2-354.2h304.6l101.4,175.7h222l111-192.2  l-111-192.2h-222L545.7,993.2H208l-72.8-72.8c-43.5-43.5-67.5-101.3-67.5-162.8s24-119.3,67.5-162.8l460.1-460.1  c43.5-43.5,101.3-67.4,162.8-67.4s119.3,23.9,162.8,67.4l360.8,360.8H970.5L869.1,319.7h-222l-111,192.2l111,192.2h222l101.4-175.7  h344.3l66.3,66.3c43.5,43.5,67.5,101.3,67.5,162.8C1448.6,819.1,1424.6,876.9,1381.1,920.4z M604.9,1009.8l76.6-132.7h153.2  l76.6,132.7l-76.6,132.7H681.5L604.9,1009.8z M911.3,511.9l-76.6,132.7H681.5l-76.6-132.7l76.6-132.7h153.2L911.3,511.9z   M974.3,610.6l-73.9,128H615.8l-73.9-128H372.2l-84.9,147l84.9,147h169.7l73.9-128h284.6l73.9,128H1144l84.8-147l-84.8-147H974.3z"></path></g><g id="SvgjsG1230" featurekey="jxYttZ-0" transform="matrix(2.9805553746495574,0,0,2.9805553746495574,92.60216584960702,1.2298345102165378)" fill="#f8f8ff"><path d="M10.08 14.3 l0 5.7 l-2.08 0 l0.02 -0.08 l0 -5.42 c0 -2 -0.52 -2.88 -2.22 -2.88 c-1.92 0 -2.6 1.34 -2.6 3.08 l0 5.3 l-2.06 0 l0 -9.88 l2.06 0 l0 1.6 c0.28 -0.88 1.42 -1.68 2.6 -1.76 c1.94 -0.14 3.32 0.5 3.94 2.1 c0.42 -1.36 1.76 -2.02 2.92 -2.1 c2.68 -0.2 4.28 1.1 4.28 4.34 l0 5.7 l-2.06 0 l0 -5.5 c0 -2 -0.52 -2.88 -2.22 -2.88 c-1.72 0 -2.44 1.08 -2.58 2.68 z M23.439999999999998 9.92 c2.84 0 3.98 1.72 3.98 3.18 l0 6.9 l-2.06 0 l0 -1.08 c-0.72 0.98 -2 1.26 -2.8 1.26 c-2.26 0 -3.74 -1.32 -3.74 -3.08 c0 -2.46 1.84 -3.34 3.74 -3.34 l2.8 0 l0 -0.66 c0 -0.62 -0.24 -1.48 -1.92 -1.48 c-0.94 0 -1.8 0.5 -2.36 1.28 l-1.42 -1.28 c0.94 -1.04 2.28 -1.7 3.78 -1.7 z M25.36 16.92 l0 -1.48 l-2.52 0 c-1.22 0 -2.08 0.62 -1.94 1.74 c0.12 0.94 0.88 1.32 1.94 1.32 c1.9 0 2.52 -0.9 2.52 -1.58 z M32.26 10.12 l0 9.88 l-2.06 0 l0 -9.88 l2.06 0 z M32.36 6.5 c0 0.64 -0.5 1.14 -1.14 1.14 c-0.62 0 -1.12 -0.5 -1.12 -1.14 c0 -0.62 0.5 -1.12 1.12 -1.12 c0.64 0 1.14 0.5 1.14 1.12 z M37.44 4.619999999999999 l0 15.38 l-2.08 0 l0 -15.38 l2.08 0 z M46.08 6.699999999999999 c-0.3 -0.14 -0.8 -0.32 -1.44 -0.06 c-0.98 0.44 -1.14 0.84 -1.14 2.48 l0 1 l2.58 0 l0 1.68 l-2.58 0 l0 8.2 l-2.06 0 l0 -8.2 l-1.2 0 l0 -1.68 l1.2 0 l0 -1 c0 -1.56 0 -1.92 0.6 -2.9 c0.64 -1.06 1.68 -1.42 2.86 -1.42 c0.54 0 0.92 0.14 1.18 0.3 l0 1.6 z M53.82 10.24 l-0.44 1.62 c-0.14 -0.08 -0.58 -0.22 -0.94 -0.22 c-1.7 0 -2.5 1.62 -2.5 3.62 l0 4.74 l-2.06 0 l0 -9.88 l2.06 0 l0 1.4 c0.24 -0.92 1.3 -1.58 2.48 -1.58 c0.54 0 1.12 0.14 1.4 0.3 z M59.24 9.92 c2.84 0 3.98 1.72 3.98 3.18 l0 6.9 l-2.06 0 l0 -1.08 c-0.72 0.98 -2 1.26 -2.8 1.26 c-2.26 0 -3.74 -1.32 -3.74 -3.08 c0 -2.46 1.84 -3.34 3.74 -3.34 l2.8 0 l0 -0.66 c0 -0.62 -0.24 -1.48 -1.92 -1.48 c-0.94 0 -1.8 0.5 -2.36 1.28 l-1.42 -1.28 c0.94 -1.04 2.28 -1.7 3.78 -1.7 z M61.16 16.92 l0 -1.48 l-2.52 0 c-1.22 0 -2.08 0.62 -1.94 1.74 c0.12 0.94 0.88 1.32 1.94 1.32 c1.9 0 2.52 -0.9 2.52 -1.58 z M74.58 14.3 l0 5.7 l-2.08 0 l0.02 -0.08 l0 -5.42 c0 -2 -0.52 -2.88 -2.22 -2.88 c-1.92 0 -2.6 1.34 -2.6 3.08 l0 5.3 l-2.06 0 l0 -9.88 l2.06 0 l0 1.6 c0.28 -0.88 1.42 -1.68 2.6 -1.76 c1.94 -0.14 3.32 0.5 3.94 2.1 c0.42 -1.36 1.76 -2.02 2.92 -2.1 c2.68 -0.2 4.28 1.1 4.28 4.34 l0 5.7 l-2.06 0 l0 -5.5 c0 -2 -0.52 -2.88 -2.22 -2.88 c-1.72 0 -2.44 1.08 -2.58 2.68 z M93.03999999999999 15.08 l0 0.74 l-7.78 0 c0 1.82 1.74 2.7 3.02 2.7 c0.94 0 1.98 -0.5 2.54 -1.3 l1.42 1.28 c-0.66 0.9 -1.74 1.7 -3.96 1.7 c-3.2 0 -5.16 -2.18 -5.16 -5.12 s1.9 -5.14 4.96 -5.14 s4.46 1.7 4.88 4.18 c0.06 0.32 0.08 0.64 0.08 0.96 z M85.3 14.120000000000001 l5.58 0 c0 -1.6 -1.28 -2.48 -2.8 -2.48 s-2.78 1.02 -2.78 2.48 z"></path></g></svg>